<svg id="visual" viewBox="0 0 960 540" width="960" height="540" xmlns="http://www.w3.org/2000/svg" xmlns:xlink="http://www.w3.org/1999/xlink" version="1.1"><rect x="0" y="0" width="960" height="540" fill="#F38181"></rect><defs><linearGradient id="grad1_0" x1="43.8%" y1="0%" x2="100%" y2="100%"><stop offset="14.444444444444446%" stop-color="#f38181" stop-opacity="1"></stop><stop offset="85.55555555555554%" stop-color="#f38181" stop-opacity="1"></stop></linearGradient></defs><defs><linearGradient id="grad2_0" x1="0%" y1="0%" x2="56.3%" y2="100%"><stop offset="14.444444444444446%" stop-color="#f38181" stop-opacity="1"></stop><stop offset="85.55555555555554%" stop-color="#f38181" stop-opacity="1"></stop></linearGradient></defs><g transform="translate(960, 0)"><path d="M0 405C-30.4 364.7 -60.8 324.4 -102.9 316.7C-145 309 -198.6 333.8 -234.5 322.8C-270.4 311.8 -288.5 265 -313.1 227.5C-337.7 189.9 -368.8 161.5 -385.2 125.2C-401.6 88.8 -403.3 44.4 -405 0L0 0Z" fill="#FCE38A"></path></g><g transform="translate(0, 540)"><path d="M0 -405C47 -407.9 93.9 -410.9 125.2 -385.2C156.4 -359.5 171.8 -305.1 199.8 -275.1C227.9 -245 268.5 -239.2 299.3 -217.5C330.1 -195.8 351.1 -158.2 367.1 -119.3C383.1 -80.4 394 -40.2 405 0L0 0Z" fill="#FCE38A"></path></g></svg>